<svg viewBox="0 0 960 640" xmlns="http://www.w3.org/2000/svg" font-family="'IBM Plex Mono', 'Courier New', monospace">
  <defs>
    <linearGradient id="bgGrad" x1="0%" y1="0%" x2="100%" y2="100%">
      <stop offset="0%" style="stop-color:#080b0f"/>
      <stop offset="100%" style="stop-color:#0c1520"/>
    </linearGradient>
    <linearGradient id="accentGrad" x1="0%" y1="0%" x2="100%" y2="0%">
      <stop offset="0%" style="stop-color:#00d4aa"/>
      <stop offset="100%" style="stop-color:#0097ff"/>
    </linearGradient>
    <linearGradient id="kafkaGrad" x1="0%" y1="0%" x2="0%" y2="100%">
      <stop offset="0%" style="stop-color:#1c2535"/>
      <stop offset="100%" style="stop-color:#111620"/>
    </linearGradient>
    <filter id="glow">
      <feGaussianBlur stdDeviation="3" result="coloredBlur"/>
      <feMerge><feMergeNode in="coloredBlur"/><feMergeNode in="SourceGraphic"/></feMerge>
    </filter>
    <filter id="shadow">
      <feDropShadow dx="0" dy="4" stdDeviation="6" flood-color="#000" flood-opacity="0.4"/>
    </filter>
    <marker id="arrow" markerWidth="8" markerHeight="8" refX="6" refY="3" orient="auto">
      <path d="M0,0 L0,6 L8,3 z" fill="#00d4aa" opacity="0.8"/>
    </marker>
    <marker id="arrowBlue" markerWidth="8" markerHeight="8" refX="6" refY="3" orient="auto">
      <path d="M0,0 L0,6 L8,3 z" fill="#0097ff" opacity="0.8"/>
    </marker>
    <marker id="arrowGray" markerWidth="8" markerHeight="8" refX="6" refY="3" orient="auto">
      <path d="M0,0 L0,6 L8,3 z" fill="#6a7f96" opacity="0.6"/>
    </marker>
  </defs>

  <!-- Background -->
  <rect width="960" height="640" fill="url(#bgGrad)"/>
  <!-- Grid -->
  <g opacity="0.04">
    <line x1="0" y1="40" x2="960" y2="40" stroke="#00d4aa" stroke-width="0.5"/>
    <line x1="0" y1="80" x2="960" y2="80" stroke="#00d4aa" stroke-width="0.5"/>
    <line x1="0" y1="120" x2="960" y2="120" stroke="#00d4aa" stroke-width="0.5"/>
    <line x1="0" y1="160" x2="960" y2="160" stroke="#00d4aa" stroke-width="0.5"/>
    <line x1="0" y1="200" x2="960" y2="200" stroke="#00d4aa" stroke-width="0.5"/>
    <line x1="0" y1="240" x2="960" y2="240" stroke="#00d4aa" stroke-width="0.5"/>
    <line x1="0" y1="280" x2="960" y2="280" stroke="#00d4aa" stroke-width="0.5"/>
    <line x1="0" y1="320" x2="960" y2="320" stroke="#00d4aa" stroke-width="0.5"/>
    <line x1="0" y1="360" x2="960" y2="360" stroke="#00d4aa" stroke-width="0.5"/>
    <line x1="0" y1="400" x2="960" y2="400" stroke="#00d4aa" stroke-width="0.5"/>
    <line x1="0" y1="440" x2="960" y2="440" stroke="#00d4aa" stroke-width="0.5"/>
    <line x1="0" y1="480" x2="960" y2="480" stroke="#00d4aa" stroke-width="0.5"/>
    <line x1="0" y1="520" x2="960" y2="520" stroke="#00d4aa" stroke-width="0.5"/>
    <line x1="0" y1="560" x2="960" y2="560" stroke="#00d4aa" stroke-width="0.5"/>
    <line x1="0" y1="600" x2="960" y2="600" stroke="#00d4aa" stroke-width="0.5"/>
    <line x1="40" y1="0" x2="40" y2="640" stroke="#00d4aa" stroke-width="0.5"/>
    <line x1="80" y1="0" x2="80" y2="640" stroke="#00d4aa" stroke-width="0.5"/>
    <line x1="120" y1="0" x2="120" y2="640" stroke="#00d4aa" stroke-width="0.5"/>
    <line x1="160" y1="0" x2="160" y2="640" stroke="#00d4aa" stroke-width="0.5"/>
    <line x1="200" y1="0" x2="200" y2="640" stroke="#00d4aa" stroke-width="0.5"/>
    <line x1="240" y1="0" x2="240" y2="640" stroke="#00d4aa" stroke-width="0.5"/>
    <line x1="280" y1="0" x2="280" y2="640" stroke="#00d4aa" stroke-width="0.5"/>
    <line x1="320" y1="0" x2="320" y2="640" stroke="#00d4aa" stroke-width="0.5"/>
    <line x1="360" y1="0" x2="360" y2="640" stroke="#00d4aa" stroke-width="0.5"/>
    <line x1="400" y1="0" x2="400" y2="640" stroke="#00d4aa" stroke-width="0.5"/>
    <line x1="440" y1="0" x2="440" y2="640" stroke="#00d4aa" stroke-width="0.5"/>
    <line x1="480" y1="0" x2="480" y2="640" stroke="#00d4aa" stroke-width="0.5"/>
    <line x1="520" y1="0" x2="520" y2="640" stroke="#00d4aa" stroke-width="0.5"/>
    <line x1="560" y1="0" x2="560" y2="640" stroke="#00d4aa" stroke-width="0.5"/>
    <line x1="600" y1="0" x2="600" y2="640" stroke="#00d4aa" stroke-width="0.5"/>
    <line x1="640" y1="0" x2="640" y2="640" stroke="#00d4aa" stroke-width="0.5"/>
    <line x1="680" y1="0" x2="680" y2="640" stroke="#00d4aa" stroke-width="0.5"/>
    <line x1="720" y1="0" x2="720" y2="640" stroke="#00d4aa" stroke-width="0.5"/>
    <line x1="760" y1="0" x2="760" y2="640" stroke="#00d4aa" stroke-width="0.5"/>
    <line x1="800" y1="0" x2="800" y2="640" stroke="#00d4aa" stroke-width="0.5"/>
    <line x1="840" y1="0" x2="840" y2="640" stroke="#00d4aa" stroke-width="0.5"/>
    <line x1="880" y1="0" x2="880" y2="640" stroke="#00d4aa" stroke-width="0.5"/>
    <line x1="920" y1="0" x2="920" y2="640" stroke="#00d4aa" stroke-width="0.5"/>
  </g>

  <!-- Title -->
  <text x="480" y="38" text-anchor="middle" fill="url(#accentGrad)" font-size="16" font-weight="700" letter-spacing="3" filter="url(#glow)">FLINKSQL STUDIO — ARCHITECTURE</text>

  <!-- ═══ BROWSER / USER ZONE ═══ -->
  <rect x="20" y="55" width="280" height="200" rx="4" fill="none" stroke="#1e2d42" stroke-width="1.5" stroke-dasharray="6,3"/>
  <text x="30" y="72" fill="#3d5166" font-size="9" letter-spacing="2">BROWSER / USER</text>

  <!-- FlinkSQL Studio UI box -->
  <rect x="34" y="80" width="252" height="160" rx="3" fill="#0c1018" stroke="url(#accentGrad)" stroke-width="1.5" filter="url(#shadow)"/>
  <rect x="34" y="80" width="252" height="22" rx="3" fill="url(#accentGrad)" opacity="0.15"/>
  <rect x="34" y="80" width="252" height="22" rx="3" fill="none" stroke="url(#accentGrad)" stroke-width="1.5"/>
  <text x="110" y="95" fill="#00d4aa" font-size="10" font-weight="700" letter-spacing="1.5">FlinkSQL Studio UI</text>
  <rect x="38" y="84" width="14" height="14" rx="2" fill="url(#accentGrad)" opacity="0.8"/>
  <text x="43" y="94" fill="#000" font-size="8" font-weight="700">F</text>

  <!-- Sub-components of UI -->
  <rect x="44" y="112" width="100" height="28" rx="2" fill="#111620" stroke="#253447" stroke-width="1"/>
  <text x="94" y="123" text-anchor="middle" fill="#a8b8cc" font-size="8">SQL Editor</text>
  <text x="94" y="133" text-anchor="middle" fill="#3d5166" font-size="7">Monaco-like textarea</text>

  <rect x="152" y="112" width="124" height="28" rx="2" fill="#111620" stroke="#253447" stroke-width="1"/>
  <text x="214" y="123" text-anchor="middle" fill="#a8b8cc" font-size="8">Results / Log Panel</text>
  <text x="214" y="133" text-anchor="middle" fill="#3d5166" font-size="7">paginated · export CSV</text>

  <rect x="44" y="148" width="72" height="24" rx="2" fill="#111620" stroke="#253447" stroke-width="1"/>
  <text x="80" y="163" text-anchor="middle" fill="#a8b8cc" font-size="8">Catalog Tree</text>

  <rect x="122" y="148" width="72" height="24" rx="2" fill="#111620" stroke="#253447" stroke-width="1"/>
  <text x="158" y="163" text-anchor="middle" fill="#a8b8cc" font-size="8">Perf Monitor</text>

  <rect x="200" y="148" width="76" height="24" rx="2" fill="#111620" stroke="#253447" stroke-width="1"/>
  <text x="238" y="163" text-anchor="middle" fill="#a8b8cc" font-size="8">Session Mgr</text>

  <rect x="44" y="180" width="232" height="20" rx="2" fill="rgba(0,212,170,0.06)" stroke="rgba(0,212,170,0.2)" stroke-width="1"/>
  <text x="160" y="193" text-anchor="middle" fill="#00d4aa" font-size="7" letter-spacing="1">localStorage · theme · tabs · history</text>

  <!-- Dark/Light theme badge -->
  <rect x="34" y="248" width="120" height="18" rx="2" fill="rgba(0,212,170,0.08)" stroke="rgba(0,212,170,0.2)"/>
  <text x="94" y="260" text-anchor="middle" fill="#00d4aa" font-size="7" letter-spacing="0.5">☀ Light  /  ☾ Dark  Theme</text>
  <rect x="162" y="248" width="124" height="18" rx="2" fill="rgba(0,151,255,0.08)" stroke="rgba(0,151,255,0.2)"/>
  <text x="224" y="260" text-anchor="middle" fill="#0097ff" font-size="7" letter-spacing="0.5">Workspace Export / Import</text>

  <!-- ═══ NGINX PROXY ZONE ═══ -->
  <rect x="320" y="55" width="140" height="200" rx="4" fill="none" stroke="#1e2d42" stroke-width="1.5" stroke-dasharray="6,3"/>
  <text x="330" y="72" fill="#3d5166" font-size="9" letter-spacing="2">STUDIO CONTAINER</text>

  <!-- nginx box -->
  <rect x="334" y="80" width="112" height="80" rx="3" fill="#0c1018" stroke="#253447" stroke-width="1.5" filter="url(#shadow)"/>
  <rect x="334" y="80" width="112" height="18" rx="3" fill="#161d2a"/>
  <text x="390" y="92" text-anchor="middle" fill="#f5a623" font-size="9" font-weight="700">nginx</text>
  <text x="390" y="107" text-anchor="middle" fill="#6a7f96" font-size="7">:80 → serves UI</text>
  <text x="390" y="118" text-anchor="middle" fill="#6a7f96" font-size="7">/flink-api/ → :8083</text>
  <text x="390" y="129" text-anchor="middle" fill="#6a7f96" font-size="7">/jobmanager-api/ → :8081</text>
  <text x="390" y="140" text-anchor="middle" fill="#6a7f96" font-size="7">CORS headers</text>

  <!-- Port label -->
  <rect x="334" y="168" width="112" height="22" rx="2" fill="rgba(245,166,35,0.06)" stroke="rgba(245,166,35,0.2)"/>
  <text x="390" y="182" text-anchor="middle" fill="#f5a623" font-size="8">http://localhost:3030</text>

  <!-- Remote mode note -->
  <rect x="334" y="198" width="112" height="44" rx="2" fill="rgba(0,151,255,0.06)" stroke="rgba(0,151,255,0.2)"/>
  <text x="390" y="212" text-anchor="middle" fill="#0097ff" font-size="7" font-weight="700">REMOTE MODE</text>
  <text x="390" y="224" text-anchor="middle" fill="#6a7f96" font-size="6.5">Direct to Gateway URL</text>
  <text x="390" y="235" text-anchor="middle" fill="#6a7f96" font-size="6.5">+ auth token support</text>

  <!-- ═══ FLINK CLUSTER ZONE ═══ -->
  <rect x="476" y="55" width="280" height="320" rx="4" fill="none" stroke="#1e2d42" stroke-width="1.5" stroke-dasharray="6,3"/>
  <text x="486" y="72" fill="#3d5166" font-size="9" letter-spacing="2">FLINK CLUSTER</text>

  <!-- SQL Gateway -->
  <rect x="490" y="80" width="130" height="80" rx="3" fill="#0c1018" stroke="#00d4aa" stroke-width="1.5" filter="url(#shadow)"/>
  <rect x="490" y="80" width="130" height="18" rx="3" fill="rgba(0,212,170,0.12)"/>
  <text x="555" y="92" text-anchor="middle" fill="#00d4aa" font-size="9" font-weight="700">Flink SQL Gateway</text>
  <text x="555" y="107" text-anchor="middle" fill="#6a7f96" font-size="7">:8083</text>
  <text x="555" y="118" text-anchor="middle" fill="#6a7f96" font-size="7">POST /v1/sessions</text>
  <text x="555" y="129" text-anchor="middle" fill="#6a7f96" font-size="7">POST /v1/sessions/{h}/statements</text>
  <text x="555" y="140" text-anchor="middle" fill="#6a7f96" font-size="7">GET  /v1/sessions/{h}/operations/…</text>

  <!-- JobManager -->
  <rect x="630" y="80" width="112" height="80" rx="3" fill="#0c1018" stroke="#0097ff" stroke-width="1.5" filter="url(#shadow)"/>
  <rect x="630" y="80" width="112" height="18" rx="3" fill="rgba(0,151,255,0.1)"/>
  <text x="686" y="92" text-anchor="middle" fill="#0097ff" font-size="9" font-weight="700">JobManager</text>
  <text x="686" y="107" text-anchor="middle" fill="#6a7f96" font-size="7">:8081 REST</text>
  <text x="686" y="118" text-anchor="middle" fill="#6a7f96" font-size="7">GET /overview</text>
  <text x="686" y="129" text-anchor="middle" fill="#6a7f96" font-size="7">GET /jobs/overview</text>
  <text x="686" y="140" text-anchor="middle" fill="#6a7f96" font-size="7">GET /jobs/{id}/metrics</text>

  <!-- TaskManager -->
  <rect x="490" y="180" width="112" height="60" rx="3" fill="#0c1018" stroke="#253447" stroke-width="1.5" filter="url(#shadow)"/>
  <rect x="490" y="180" width="112" height="18" rx="3" fill="#161d2a"/>
  <text x="546" y="192" text-anchor="middle" fill="#a8b8cc" font-size="9" font-weight="600">TaskManager(s)</text>
  <text x="546" y="207" text-anchor="middle" fill="#6a7f96" font-size="7">SQL execution slots</text>
  <text x="546" y="218" text-anchor="middle" fill="#6a7f96" font-size="7">State backends</text>

  <!-- Catalog / State -->
  <rect x="612" y="180" width="130" height="60" rx="3" fill="#0c1018" stroke="#253447" stroke-width="1.5" filter="url(#shadow)"/>
  <rect x="612" y="180" width="130" height="18" rx="3" fill="#161d2a"/>
  <text x="677" y="192" text-anchor="middle" fill="#a8b8cc" font-size="9" font-weight="600">Catalog</text>
  <text x="677" y="207" text-anchor="middle" fill="#6a7f96" font-size="7">default_catalog (in-memory)</text>
  <text x="677" y="218" text-anchor="middle" fill="#6a7f96" font-size="7">Hive / Iceberg / custom</text>

  <!-- State note -->
  <rect x="490" y="256" width="252" height="30" rx="2" fill="rgba(255,77,109,0.06)" stroke="rgba(255,77,109,0.2)"/>
  <text x="616" y="268" text-anchor="middle" fill="#ff4d6d" font-size="7" font-weight="700">⚠  Sessions are ephemeral</text>
  <text x="616" y="279" text-anchor="middle" fill="#6a7f96" font-size="6.5">Lost on container restart — use Workspace Export to save SQL scripts</text>

  <!-- Flink version badge -->
  <rect x="490" y="296" width="130" height="18" rx="2" fill="rgba(0,212,170,0.06)" stroke="rgba(0,212,170,0.15)"/>
  <text x="555" y="308" text-anchor="middle" fill="#3d5166" font-size="7">Flink 1.18+ / 1.19.1 tested</text>
  <rect x="630" y="296" width="112" height="18" rx="2" fill="rgba(0,151,255,0.06)" stroke="rgba(0,151,255,0.15)"/>
  <text x="686" y="308" text-anchor="middle" fill="#3d5166" font-size="7">Java 11 / Scala 2.12</text>

  <!-- ═══ EXTERNAL CONNECTORS ═══ -->
  <rect x="20" y="300" width="280" height="160" rx="4" fill="none" stroke="#1e2d42" stroke-width="1.5" stroke-dasharray="6,3"/>
  <text x="30" y="317" text-anchor="middle" fill="#3d5166" font-size="9" letter-spacing="2">EXTERNAL CONNECTORS</text>
  <text x="142" y="317" fill="#3d5166" font-size="9" letter-spacing="2"> </text>

  <!-- Kafka -->
  <rect x="30" y="324" width="74" height="56" rx="3" fill="#0c1018" stroke="#f5a623" stroke-width="1.2"/>
  <text x="67" y="344" text-anchor="middle" fill="#f5a623" font-size="8.5" font-weight="700">Apache</text>
  <text x="67" y="354" text-anchor="middle" fill="#f5a623" font-size="8.5" font-weight="700">Kafka</text>
  <text x="67" y="368" text-anchor="middle" fill="#3d5166" font-size="6.5">source / sink</text>

  <!-- MinIO / S3 -->
  <rect x="112" y="324" width="74" height="56" rx="3" fill="#0c1018" stroke="#39d353" stroke-width="1.2"/>
  <text x="149" y="344" text-anchor="middle" fill="#39d353" font-size="8.5" font-weight="700">MinIO</text>
  <text x="149" y="354" text-anchor="middle" fill="#39d353" font-size="8.5" font-weight="700">/ S3</text>
  <text x="149" y="368" text-anchor="middle" fill="#3d5166" font-size="6.5">filesystem / iceberg</text>

  <!-- Elasticsearch -->
  <rect x="194" y="324" width="96" height="56" rx="3" fill="#0c1018" stroke="#0097ff" stroke-width="1.2"/>
  <text x="242" y="344" text-anchor="middle" fill="#0097ff" font-size="8.5" font-weight="700">Elastic</text>
  <text x="242" y="354" text-anchor="middle" fill="#0097ff" font-size="8.5" font-weight="700">search</text>
  <text x="242" y="368" text-anchor="middle" fill="#3d5166" font-size="6.5">sink / lookup</text>

  <!-- Connector note -->
  <rect x="30" y="390" width="260" height="40" rx="2" fill="rgba(0,212,170,0.04)" stroke="#1e2d42"/>
  <text x="160" y="404" text-anchor="middle" fill="#3d5166" font-size="6.5">Connected via Flink SQL WITH clause:</text>
  <text x="160" y="416" text-anchor="middle" fill="#6a7f96" font-size="6.5">'connector'='kafka' | 'filesystem' | 'elasticsearch-7'</text>

  <!-- ═══ KUBERNETES / OPERATOR ═══ -->
  <rect x="770" y="55" width="170" height="200" rx="4" fill="none" stroke="#1e2d42" stroke-width="1.5" stroke-dasharray="6,3"/>
  <text x="780" y="72" fill="#3d5166" font-size="9" letter-spacing="2">KUBERNETES</text>

  <!-- Operator box -->
  <rect x="784" y="80" width="142" height="60" rx="3" fill="#0c1018" stroke="#a855f7" stroke-width="1.5" filter="url(#shadow)"/>
  <rect x="784" y="80" width="142" height="18" rx="3" fill="rgba(168,85,247,0.1)"/>
  <text x="855" y="92" text-anchor="middle" fill="#a855f7" font-size="9" font-weight="700">Studio Operator</text>
  <text x="855" y="107" text-anchor="middle" fill="#6a7f96" font-size="7">CRD: FlinkSQLStudio</text>
  <text x="855" y="118" text-anchor="middle" fill="#6a7f96" font-size="7">controller reconciles</text>
  <text x="855" y="129" text-anchor="middle" fill="#6a7f96" font-size="7">Deployment + Service</text>

  <!-- K8s resources -->
  <rect x="784" y="150" width="66" height="36" rx="2" fill="#0c1018" stroke="#253447"/>
  <text x="817" y="163" text-anchor="middle" fill="#a8b8cc" font-size="7">Deployment</text>
  <text x="817" y="173" text-anchor="middle" fill="#3d5166" font-size="6.5">studio pods</text>

  <rect x="858" y="150" width="68" height="36" rx="2" fill="#0c1018" stroke="#253447"/>
  <text x="892" y="163" text-anchor="middle" fill="#a8b8cc" font-size="7">Service</text>
  <text x="892" y="173" text-anchor="middle" fill="#3d5166" font-size="6.5">ClusterIP / LB</text>

  <rect x="784" y="196" width="142" height="30" rx="2" fill="rgba(168,85,247,0.05)" stroke="rgba(168,85,247,0.2)"/>
  <text x="855" y="209" text-anchor="middle" fill="#a855f7" font-size="7">helm install flinksql-studio</text>
  <text x="855" y="220" text-anchor="middle" fill="#3d5166" font-size="6.5">charts/flinksql-studio</text>

  <!-- ═══ CI/CD ═══ -->
  <rect x="770" y="270" width="170" height="105" rx="4" fill="none" stroke="#1e2d42" stroke-width="1.5" stroke-dasharray="6,3"/>
  <text x="780" y="287" fill="#3d5166" font-size="9" letter-spacing="2">CI / CD</text>

  <rect x="784" y="294" width="142" height="68" rx="3" fill="#0c1018" stroke="#253447" stroke-width="1.2"/>
  <text x="855" y="308" text-anchor="middle" fill="#a8b8cc" font-size="8" font-weight="600">GitHub Actions</text>
  <text x="855" y="320" text-anchor="middle" fill="#3d5166" font-size="7">push to main →</text>
  <text x="855" y="331" text-anchor="middle" fill="#6a7f96" font-size="7">docker build + push</text>
  <text x="855" y="342" text-anchor="middle" fill="#6a7f96" font-size="7">codedstreams/flinksql-studio</text>
  <text x="855" y="353" text-anchor="middle" fill="#f5a623" font-size="7">:latest · :v{semver}</text>

  <!-- ═══ FLOW ARROWS ═══ -->

  <!-- Browser → nginx (HTTP :3030) -->
  <line x1="286" y1="150" x2="334" y2="150" stroke="#00d4aa" stroke-width="1.5" marker-end="url(#arrow)" opacity="0.8"/>
  <text x="310" y="145" text-anchor="middle" fill="#3d5166" font-size="7">HTTP :3030</text>

  <!-- nginx → SQL Gateway -->
  <line x1="446" y1="120" x2="490" y2="120" stroke="#00d4aa" stroke-width="1.5" marker-end="url(#arrow)" opacity="0.8"/>
  <text x="468" y="115" text-anchor="middle" fill="#3d5166" font-size="7">/flink-api/</text>

  <!-- nginx → JobManager -->
  <line x1="446" y1="110" x2="630" y2="110" stroke="#0097ff" stroke-width="1" stroke-dasharray="4,2" marker-end="url(#arrowBlue)" opacity="0.6"/>
  <text x="540" y="105" text-anchor="middle" fill="#3d5166" font-size="6.5">/jobmanager-api/</text>

  <!-- SQL Gateway → JobManager (internal) -->
  <line x1="620" y1="120" x2="630" y2="120" stroke="#253447" stroke-width="1.2" marker-end="url(#arrowGray)" opacity="0.5"/>

  <!-- SQL Gateway → TaskManagers -->
  <line x1="555" y1="160" x2="546" y2="180" stroke="#253447" stroke-width="1.2" marker-end="url(#arrowGray)" opacity="0.5"/>

  <!-- Flink ↔ External connectors (vertical) -->
  <line x1="160" y1="300" x2="546" y2="250" stroke="#f5a623" stroke-width="1" stroke-dasharray="4,2" marker-end="url(#arrowGray)" opacity="0.35"/>

  <!-- Legend -->
  <rect x="20" y="478" width="430" height="60" rx="3" fill="#0c1018" stroke="#1e2d42"/>
  <text x="30" y="492" fill="#3d5166" font-size="8" font-weight="700" letter-spacing="1">LEGEND</text>
  <line x1="30" y1="504" x2="70" y2="504" stroke="#00d4aa" stroke-width="1.5" marker-end="url(#arrow)"/>
  <text x="75" y="507" fill="#6a7f96" font-size="7">HTTP / REST (proxied)</text>
  <line x1="30" y1="524" x2="70" y2="524" stroke="#0097ff" stroke-width="1" stroke-dasharray="4,2" marker-end="url(#arrowBlue)"/>
  <text x="75" y="527" fill="#6a7f96" font-size="7">JobManager metrics</text>
  <line x1="220" y1="504" x2="260" y2="504" stroke="#f5a623" stroke-width="1" stroke-dasharray="4,2"/>
  <text x="265" y="507" fill="#6a7f96" font-size="7">Connector (WITH clause)</text>
  <line x1="220" y1="524" x2="260" y2="524" stroke="#253447" stroke-width="1.2" marker-end="url(#arrowGray)"/>
  <text x="265" y="527" fill="#6a7f96" font-size="7">Internal cluster comms</text>

  <!-- Version tag -->
  <rect x="820" y="580" width="120" height="30" rx="2" fill="rgba(0,212,170,0.06)" stroke="rgba(0,212,170,0.2)"/>
  <text x="880" y="592" text-anchor="middle" fill="#3d5166" font-size="7">codedstreams</text>
  <text x="880" y="603" text-anchor="middle" fill="#00d4aa" font-size="8" font-weight="700">FlinkSQL Studio</text>

  <!-- Copyright -->
  <text x="480" y="625" text-anchor="middle" fill="#253447" font-size="7">© 2025 Nestor A. A · codedstreams · Apache 2.0 License · github.com/coded-streams/flinksql-studio</text>
</svg>
